<svg viewBox="0 0 1024 1176.463" xmlns="http://www.w3.org/2000/svg"><path d="M685.75 922.402c2.364-6.416 3.73-13.826 3.73-21.555 0-7.43-1.263-14.566-3.587-21.202l.137.45L423.345 101.72H664.668c9.435 0 17.457 6.05 20.396 14.484l.046.152 262.405 777.576c.72 2.06 1.134 4.434 1.134 6.905 0 9.44-6.06 17.466-14.5 20.4l-.152.046zm-185.587-457.91l144.918 429.44c.723 2.064 1.14 4.443 1.14 6.92 0 11.903-9.634 21.558-21.53 21.592l-.003-.04h-1.226c-4.838 0-9.305-1.59-12.906-4.28l.057.042L239.24 642.24h194.064zM927.04 965.59h.07c35.776 0 64.78-29.004 64.78-64.782 0-7.443-1.255-14.593-3.566-21.25l.137.456v.08L725.938 102.518c-8.892-25.842-32.984-44.084-61.34-44.108H359.402c-28.36.023-52.45 18.265-61.206 43.652l-.137.455L35.574 880.053c-2.164 6.19-3.415 13.326-3.415 20.755 0 35.777 29.003 64.78 64.78 64.78h189.643c28.375-.004 52.487-18.25 61.246-43.65l.136-.456 39.068-115.648L584.858 952.79c10.643 7.99 24.075 12.796 38.63 12.797z"/></svg>