<svg fill="none" height="24" viewBox="0 0 24 24" width="24" xmlns="http://www.w3.org/2000/svg"><path clip-rule="evenodd" d="m17.1574 5.94981.0033.00413c1.1377 1.00538 1.9561 2.31861 2.355 3.77912 2.0627 1.38704 2.9684 3.95334 2.2296 6.31754-.7389 2.3643-2.9479 3.9685-5.438 3.9492l-8.69237-.0016c-1.22709.0053-2.42727-.429-3.40764-1.1627l-.00207.0021c-1.91229-1.4622-2.67942-3.9786-1.90951-6.2515.39373-1.1624 1.14498-2.1321 2.10776-2.80404.00043-.00308.00112-.00639.00209-.00994.70709-2.59115 2.71698-4.67468 5.30371-5.44593s5.42343-.15303 7.44813 1.62362zm1.3214 8.43449c0 1.1923-.9722 2.1589-2.1715 2.1589l-8.69237-.0032s-.42757 0-.91542-.2265c-.8649-.4015-1.36571-1.3187-1.23084-2.2603.13616-.9507.8875-1.6976 1.8437-1.833.95619-.1354 1.8874.3734 2.28506 1.2484l2.51917-2.5045c-.8381-1.08932-2.0393-1.82485-3.36674-2.09084l.01805-.01951c1.54659-1.68867 4.16819-1.90918 5.95389-.47247l.0026.00087c1.0246.83696 1.6079 2.09415 1.5829 3.41275v.4306c1.1993 0 2.1715.9665 2.1715 2.1588z" fill="#000001" fill-rule="evenodd"/></svg>