<svg fill="none" height="15" viewBox="0 0 15 15" width="15" xmlns="http://www.w3.org/2000/svg"><path d="m7.49998.5.36857-.337862c-.0947-.1033148-.22842-.162138-.36857-.162138-.14016 0-.27388.0588232-.36858.162138zm0 13-.39316.3089c.09479.1207.23972.1911.39316.1911.15343 0 .29836-.0704.39315-.1911zm-2.87711-3.66178-.39316.30888zm.24582-6.46772-.36858-.33787zm5.26261-.00001.3685-.33786zm.2458 6.46774.3931.30887zm-2.37712 5.16177v-14.5h-1v14.5zm-.10685-1.8089-2.87711-3.66179-.78631.61779 2.87711 3.6618zm-2.65587-9.48274 2.63129-2.870498-.73715-.675724-2.63129 2.870492zm1.89414-2.870498 2.63128 2.870498.73712-.67573-2.63125-2.870492zm2.85252 8.691458-2.8771 3.66178.78631.6178 2.87707-3.6618zm-.22124-5.82096c1.48902 1.62442 1.58272 4.08819.22124 5.82096l.78628.61778c1.664-2.11778 1.5496-5.12907-.2704-7.11447zm-4.74666 5.82095c-1.36145-1.73276-1.26781-4.19653.22124-5.82095l-.73715-.67573c-1.81995 1.98541-1.9344 4.99669-.2704 7.11447z" fill="#000"/></svg>