<svg viewBox="0 0 14 14" xmlns="http://www.w3.org/2000/svg"><path d="m1.1759672 1.2982589c-.30085519.300856-.22564139.647052.3008551 1.429062.270983.405941.5867742 1.038057.7073296 1.39919.1205554.376069.3611328.887629.5264964 1.143143.3008552.42141.3008552.51156.105086 1.278634-.1205555.481155-.1653637 1.083398-.105086 1.459467.09015.632116.6017103 1.549618.9175015 1.654703.2709829.09015.6619879-.391004.676924-.827351 0-.376069.014936-.391005.1802997-.120556.285919.466219 1.1884844 1.4589341 1.2636982 1.3837211.0298721-.029872-.1653637-.4214111-.4512827-.8572241-.270983-.451283-.5867742-1.038057-.7067962-1.30904-.1653636-.451283-.2256413-.481155-.4214105-.270983-.1205554.120556-.270983.466219-.3157912.78201-.1205554.722266-.391005.812416-.6017102.195769-.2107053-.616646-.2107053-1.670172 0-2.391905.1504275-.496624.1354915-.631582-.1205555-1.008184-.1653636-.225642-.4214105-.767074-.556902-1.203421-.1354915-.42141-.4512827-1.052993-.7067961-1.384253-.5867742-.827352-.5867742-1.128207.0298721-1.008185.2555135.04534.6470519.225641.8876293.391005.2256413.165363.6166463.300855.8572237.300855.7222657 0 1.9859639.70733 2.9034655 1.624831.707329.706796 1.067929 1.278634 1.835536 2.828251.902565 1.835003.977779 1.940623 1.534681 2.120922.6619881.225642 2.0457081 1.067929 2.0457081 1.2487621 0 .06028-.346196.150428-.767074.1803-1.128206.120556-1.2338261.330727-.496624.992715.346197.300856.993249.767074 1.459468 1.023121l.842287.481155-.391005-.496624c-.225641-.270983-.69186-.69186-1.052993-.917502-.361133-.225641-.647052-.466218-.647052-.526496 0-.06028.255514-.165364.571839-.210705.842287-.150428 1.082865-.225642 1.082865-.376069 0-.225642-1.519212-1.3687841-2.241478-1.6851091-.6166461-.285919-.6918601-.406475-1.4893391-2.045708-.70733-1.504276-.992715-1.925686-1.895281-2.828252-1.1580787-1.158079-1.9555581-1.654703-2.9786789-1.80513-.3461967-.060278-.8273516-.240578-1.0380568-.391005-.4966243-.376069-1.5042756-.511561-1.7453865-.255514z"/></svg>