<svg enable-background="new 0 0 512 512" height="512" viewBox="0 0 512 512" width="512" xmlns="http://www.w3.org/2000/svg"><path d="m489.447 206.978-1.087-1.701c-6.193-9.628-10.418-15.563-15.51-21.855-14.856-18.375-32.844-33.366-54.882-45.704-30.282-16.956-69.563-30.133-119.224-40.006-9.354-1.86-29.812-5.367-46.512-7.972l-1.676-2.946c-9.125-16.103-19.209-36.026-25.062-49.509-4.533-10.441-8.885-22.471-11.3-31.182-1.434-5.173-1.584-5.509-2.38-5.602-1.711-.2-29.185 9.698-46.837 16.87-23.917 9.717-42.487 19.028-53.943 27.068-3.728 2.618-8.292 7.06-9.907 9.516-.012-.04-.029-.076-.038-.118 0 0-.202.325-.399.908-.021.044-.05.095-.067.137-.292.773-.431 1.678-.435 2.606l.133.127c.049.862.237 1.843.67 2.924.992 2.479 3.969 5.458 7.251 8.614 0 0 34.383 33.539 38.597 38.402 19.051 21.986 27.327 43.633 28.09 73.517.49 19.176-3.209 36.035-12.191 55.628-16.101 35.12-50.024 73.846-102.417 116.906l.65-.217c-.325.263-.665.54-.979.787-6.252 4.984-15.55 14.21-20.301 20.126-7.071 8.8-12.599 18.185-14.976 25.4-4.276 12.983-2.192 26.134 6.055 38.273 10.536 15.502 31.51 31.256 55.903 41.978 12.442 5.472 33.44 12.523 49.184 16.498 26.238 6.627 76.949 13.823 104.876 14.895 5.665.217 13.205.197 13.551-.03.613-.406 4.96-8.641 10.004-18.945 17.166-35.063 29.583-67.929 36.263-96 4.051-17 7.204-39.668 9.249-66.546.569-7.523.778-32.631.338-41.165-.719-13.892-1.941-25.207-3.902-36.317-.141-.798-.235-1.548-.281-2.122 62.154-18.47 130.885-35.185 176.431-42.161zm-169.94-92.589c.714 0 14.807 3.843 22.098 6.022 18.151 5.43 39.095 13.08 52.678 19.249l5.654 2.559-3.986.922c-33.242 7.637-61.731 16.45-89.173 27.587-2.279.927-4.263 1.685-4.403 1.685s.589-1.763 1.604-3.917c8.249-17.527 13.576-35.917 14.959-51.532.124-1.422.378-2.575.569-2.575zm-7.581 9.292c-2.812 11.522-10.262 28.625-19.457 44.7-1.623 2.833-3.07 5.194-3.237 5.246-.171.051-2.265-1.051-4.65-2.445-8.99-5.258-19.173-10.234-30.354-14.845-3.12-1.286-5.773-2.432-5.91-2.559-.511-.479 24.34-16.929 37.51-24.834 10.54-6.323 27.501-15.774 27.798-15.478.249.245-.795 6.513-1.7 10.215zm-107.536 223.829c-14.626 5.548-30.556 11.103-48.846 17.015-6.968 2.253-12.867 4.157-13.097 4.24-.695.259-.482-.167 1.556-3.351 9.086-14.188 22.853-41.94 30.548-61.569 1.336-3.404 2.605-6.816 2.834-7.576.076-.258.154-.471.242-.661 1.062-.444 2.137-.889 3.208-1.333.236.459.652 1.463 1.051 2.545 2.464 6.695 8.005 16.643 12.822 23.007 5.255 6.945 12.107 14.348 17.841 19.264 1.839 1.581 3.558 3.056 3.803 3.271.491.437.659.361-11.962 5.148zm10.555 6.767c.053.053-.551 1.676-1.343 3.591-6.745 16.308-15.579 34.094-26.842 54.075-2.867 5.084-5.284 9.237-5.376 9.226-.091-.008-2.422-1.383-5.181-3.074-16.409-10.042-30.925-22.409-40.457-34.436l-1.36-1.698 7.075-1.941c25.235-6.915 46.636-14.31 67.914-23.474 3.013-1.3 5.517-2.322 5.57-2.269zm-35.127-203.622c-.31-2.155-.5-3.988-.42-4.064.224-.224 10.952 2.29 16.806 3.933 8.792 2.47 27.509 8.733 27.521 9.212 0 .093-2.063 1.892-4.581 3.999-10.118 8.465-19.877 17.316-31.571 28.607-3.465 3.348-6.412 6.072-6.556 6.072-.145 0-.211-.488-.129-1.085 1.759-12.998 1.383-29.686-1.07-46.674zm2.882-17.389c0-.479 9.567-10.044 13.681-13.68 7.855-6.944 28.991-23.385 29.741-23.134.44.146 1.273 2.747 2.751 8.596 2.829 11.198 4.147 23.772 3.708 35.407-.122 3.237-.327 6.245-.454 6.686l-.244.809-3.997-1.295c-8.243-2.633-21.712-6.6-33.256-9.793-6.555-1.816-11.93-3.437-11.93-3.596zm23.394 52.81c7.292-6.167 22.642-18.447 22.828-18.261.209.209-2.397 9.782-4.048 14.895-3.166 9.805-8.519 22.13-13.664 31.407-1.208 2.179-3.063 5.369-4.113 7.092l-1.909 3.124-4.339-4.193c-5.041-4.888-9.149-7.924-14.393-10.62-2.061-1.061-3.737-2.042-3.739-2.187-.011-.636 13.191-12.641 23.377-21.257zm-3.674 55.499c.05-.031.095-.044.145-.049.354-.044.855.613 2.949 3.74 4.409 6.591 7.787 15.381 8.661 22.536l.176 1.539-10.57 4.097c-18.977 7.363-36.446 14.624-48.245 20.027-3.302 1.512-9.13 4.293-12.936 6.201-3.807 1.899-6.915 3.396-6.915 3.316 0-.079 2.392-1.881 5.312-4.001 23.158-16.81 43.125-35.215 58.169-53.618 1.609-1.968 3.07-3.674 3.254-3.788zm4.902 79.999c-6.013-6.977-10.768-13.899-14.233-20.723-1.467-2.888-3.653-8.116-4.193-9.891 10.964-4.457 22.374-8.918 34.327-13.413 2.58-.969 5.236-1.945 7.93-2.926.279 3.169-.044 17.627-.551 21.875-1.356 11.312-3.568 21.775-7.109 33.672-.844 2.842-1.638 5.297-1.763 5.44-.308.359-10.892-9.953-14.408-14.034zm12.388-54.516c-.197.068-.321-1.057-.323-2.835-.019-9.362-2.388-19.371-6.573-27.845-1.769-3.58-2.065-4.446-1.7-4.776 1.457-1.32 23.998-14.172 38.208-21.791 9.76-5.232 24.749-12.847 24.931-12.66.183.186-10.472 15.111-16.806 23.54-7.576 10.084-21.07 26.941-30.354 37.917-3.88 4.581-7.202 8.389-7.383 8.45zm47.757-78.504c-14.535 7.272-26.984 14.14-39.984 22.083-3.708 2.265-6.815 4.128-6.916 4.128-.323 0-.196-.281 1.879-4.081 6.925-12.68 12.506-27.817 15.721-42.611.287-1.32.631-2.126.874-2.073 1.075.241 11.12 4.915 18.7 8.711 6.931 3.471 17.433 9.06 17.957 9.552.06.062-3.634 1.994-8.231 4.291zm10.445-83.297c10.765 2.062 26.343 5.323 27.277 5.717.456.188-1.155 1.065-6.33 3.398-20.457 9.226-35.609 17.458-50.671 27.54-3.969 2.656-7.267 4.824-7.335 4.824-.066 0-.127-2.217-.129-4.922-.009-14.689-2.942-29.517-8.321-42.044-.578-1.347-1.015-2.504-.956-2.557.24-.224 32.023 5.28 46.465 8.044zm-52.337-45.208c.327.025.673.688 1.636 2.8 2.639 5.781 10.854 21.449 12.839 24.479.166.253.355.444.369.564-16.954-2.664-31.012-4.924-44.218-7.117.108-.148.817-.61 1.708-1.106 8.114-4.512 16.3-10.192 23.588-16.336 1.742-1.468 3.417-2.867 3.724-3.123.124-.104.245-.17.354-.161zm-56.922-38.111c10.677-4.966 39.749-17.071 41.866-17.451.068-.014.103-.014.114 0 .053.064.367 2.225.68 4.791 1.32 10.813 3.741 21.302 7.529 32.591 2.852 8.506 2.894 8.006-.503 7.058-7.894-2.204-43.266-8.274-68.854-11.819-4.123-.57-7.556-1.077-7.611-1.132-.323-.326 18.454-10.164 26.779-14.038zm-29.692 18.198c16.428 5.591 57.606 13.458 80.365 15.349 2.569.212 4.727.44 4.792.501.066.059-2.114 1.225-4.839 2.589-10.981 5.5-23.065 12.204-31.426 17.437-1.934 1.212-3.729 2.229-4.552 2.597-2.512-.427-5.025-.856-7.542-1.29l-7.381-7.168c-13.642-13.204-24.292-23.419-28.413-27.279l-3.999-3.756zm-24.832 23.751.013-.876c.053-5.217 6.63-12.913 17.792-20.788l.988-.68 10.88 13.583c5.988 7.47 11.992 14.885 13.323 16.481 1.128 1.351 2.033 2.519 2.246 2.876-7.571-1.316-15.975-2.817-22.228-4.164-.585-.131-1.147-.256-1.679-.38-2.172-.496-4.011-.927-5.639-1.32-4.246-1.055-9.127-2.386-13.291-3.821-.767-.299-1.577-.601-2.405-.911zm52.446 60.41c-.072.072-.938-1.271-1.909-2.979-9.04-15.897-23.354-32.061-39.909-45.073-2.063-1.621-3.739-2.998-3.739-3.059.049-.043 1.339.355 2.914.889 2.903.986 6.731 2.139 11.186 3.383 3.124.874 6.555 1.79 10.2 2.721 4.653 1.189 8.5 2.211 8.549 2.267.515.579 8.329 25.516 10.992 35.083 1.018 3.652 1.788 6.696 1.716 6.768zm7.804.841c-2.81-10.77-8.619-26.675-13.827-37.867-.836-1.801-1.521-3.389-1.521-3.53 0-.019.024-.028.082-.032.399-.028 2.114.26 4.161.712 13.181 2.915 36.719 7.458 51.857 10.004 2.519.426 4.597.881 4.597 1.02s-.942.735-2.089 1.313c-2.539 1.276-12.816 7.428-16.255 9.729-8.583 5.745-16.3 11.895-21.92 17.485-2.259 2.246-4.149 4.079-4.21 4.079-.062.002-.457-1.307-.875-2.913zm-16.302 133.938c5.108-7.816 7.677-12.239 10.361-17.891 2.384-5.023 4.761-10.984 6.458-16.173.707-2.154 1.444-3.917 1.638-3.917.192 0 2 .908 4.014 2.023 4.934 2.734 9.364 5.739 13.274 9.001.152.125-1.874 1.78-4.499 3.674-7.333 5.291-18.498 13.718-24.965 18.863-6.822 5.427-7.05 5.595-6.281 4.42zm-26.519 34.32c5.069-5.521 8.95-10.107 13.355-15.829 2.903-3.77 3.456-4.302 7.708-7.371 11.45-8.263 37.627-25.996 37.932-25.692.306.306-8.545 10.316-14.505 16.402-14.921 15.225-29.711 27.163-48.034 38.79-2.293 1.451-4.389 2.77-4.662 2.929-.505.293.16-.459 8.206-9.229zm-12.001 32.597c.532-2.558.773-3.728 1.216-4.442 13.867-6.922 28.45-13.708 43.967-20.441-.897 2.234-4.132 8.975-7.332 15.222-7.487 14.598-15.74 28.972-26.698 46.507-1.891 3.032-3.632 5.798-3.868 6.14-.391.563-.551.38-1.75-2.006-2.624-5.221-4.822-11.802-5.958-17.927-1.124-6.058-.932-16.548.423-23.053zm-82.083 72.481c1.763-11.349 10.42-26.251 22.52-38.759 6.957-7.189 12.721-11.848 21.234-17.022 3.749-2.15 8.376-4.72 14.275-7.945 3.684-2.018 7.428-4.009 11.208-5.995.095.28-.038 1.144-.414 3.313-.344 1.979-.733 5.727-.875 8.303-.622 11.314 1.214 19.666 6.833 31.088 1.562 3.177 2.783 5.821 2.718 5.874-.562.472-51.731 15.445-67.819 19.85-4.769 1.307-8.935 2.454-9.276 2.561-.558.164-.607.043-.404-1.268zm31.296 54.996-3.465-2.915c-4.065-3.412-11.18-10.661-14.408-14.682-6.642-8.283-11.144-16.995-12.92-25.001-.819-3.693-.844-5.574-.064-5.806 1.126-.342 21.791-5.205 41.17-9.7 10.764-2.496 23.21-5.419 27.668-6.494 4.457-1.071 8.148-1.915 8.192-1.877.19.183-9.666 14.287-23.426 33.543-4.784 6.695-10.401 14.587-12.481 17.539-2.081 2.948-5.227 7.614-7.01 10.373zm5.309 4.046-1.425-1.018 2.234-3.223c7.25-10.502 16.359-22.053 36.297-46.043l13.666-16.449 2.492 2.785c11.146 12.418 22.482 21.681 36.313 29.675 2.443 1.414 4.303 2.638 4.145 2.736-.577.357-47.827 17.159-69.681 24.773-12.326 4.293-22.448 7.793-22.505 7.785-.054-.011-.751-.467-1.536-1.021zm66.104 30.568-1.149-.308c-2.775-.753-22.339-7.66-27.507-9.712-6.406-2.546-13.082-5.616-18.002-8.275-6.152-3.321-13.952-8.253-13.34-8.451.174-.053 10.76-2.952 23.506-6.429 33.91-9.24 52.668-14.552 64.969-18.39 2.299-.715 4.216-1.258 4.257-1.216.101.103-5.388 8.891-15.039 24.089-4.077 6.422-8.697 13.732-10.282 16.24-1.583 2.515-3.902 6.33-5.148 8.503zm6.184 1.425c0-.167 1.856-2.516 4.111-5.213 11.135-13.314 22.192-28.189 31.425-42.256 2.525-3.845 4.639-7.056 4.694-7.124s3.509 1.159 7.69 2.721c10.078 3.769 17.985 6.224 28.689 8.906 13.143 3.29 32.141 6.581 43.389 7.526 1.726.145 2.606.343 2.333.518-.524.33-11.916 4.138-20.288 6.767-13.292 4.18-53.914 16.179-87.037 25.708-6.144 1.771-11.397 3.264-11.672 3.321-.741.155-3.334-.525-3.334-.874zm106.154 14.977c-1.026 2.466-1.408 3.063-1.941 3.04-1.3-.054-19.503-2.599-30.519-4.271-19.285-2.93-51.587-8.572-59.741-10.427l-1.895-.425 11.561-2.607c24.777-5.577 36.675-8.571 48.747-12.269 15.225-4.662 30.3-10.472 45.527-17.55 2.408-1.117 4.46-1.977 4.97-2.09.072-.016.106-.016.113 0 .32.806-12.234 35.573-16.822 46.599zm31.749-94.305c-2.729 9.662-5.016 17.22-9.264 30.613-1.869 5.916-3.48 10.741-3.572 10.719-.099-.026-.547-.114-1.007-.197-22.987-4.157-43.577-9.963-62.864-17.706-5.396-2.174-13.188-5.624-13.601-6.026-.139-.137 4.521-2.333 10.346-4.871 35.226-15.373 71.723-32.874 84.201-40.382 1.504-.897 2.613-1.426 2.864-1.372.038.008.054.034.054.064.001 1.717-3.906 17.637-7.157 29.158zm5.782-32.882c-10.273 5.699-44.102 19.773-78.651 32.737-5.044 1.893-9.966 3.746-10.93 4.126-.961.381-1.748.643-1.748.566s1.425-2.819 3.172-6.091c9.701-18.132 19.382-40.169 24.352-55.462.505-1.563.954-2.873 1.003-2.93.047-.062 1.945.957 4.21 2.265 16.526 9.56 39.586 18.526 59.252 23.025l1.778.402zm5.289-77.649c2.873 1.254 3.203.768-3.412 5.267-14.104 9.574-31.643 18.99-53.167 28.558-3.752 1.664-6.932 3.024-7.06 3.024s.291-1.9.923-4.24c5.215-19.295 8.158-38.764 8.239-54.38.021-3.822.032-5.761.127-6.771.697-.243 1.389-.486 2.092-.732 1.064.527 2.758 1.538 5.407 3.195 15.968 9.999 37.588 22.036 46.851 26.079zm-44.066-32.098c13.544-4.605 28.027-9.252 43.024-13.826 1.103 4.501 3.101 24.551 3.667 37.846.137 3.199.11 5.247-.08 5.247-.615 0-13.108-7.341-21.969-12.903-7.645-4.799-22.043-14.366-24.642-16.364zm47.159 41.491c-.015 17.258-1.857 40.892-4.528 58.134-.472 3.028-.878 5.524-.908 5.555-.034.03-2.216-.607-4.845-1.425-11.611-3.605-24.203-8.993-35.566-15.217-7.523-4.123-18.405-10.799-18.101-11.106.083-.084 3.289-1.782 7.124-3.773 15.193-7.884 29.704-16.384 42.322-24.818 4.73-3.161 11.813-8.283 13.386-9.666l1.117-.969v3.285zm31.772-77.959c-35.438 9.832-62.814 18.583-94.76 30.323-3.545 1.304-6.606 2.383-6.816 2.383-.439 0-.878.402 7.092-6.933 20.432-18.802 38.482-39.52 51.967-59.674l2.721-4.079 3.773 2.443c8.651 5.62 18.902 13.177 26.715 19.688 4.377 3.647 12.888 11.268 14.636 13.114l.935.986zm14.051-3.981c-.076 0-1.063-1.396-2.203-3.093-8.687-12.979-18.995-24.38-31.294-34.614-2.295-1.909-4.887-4.004-5.745-4.646-.866-.643-1.565-1.235-1.573-1.326-.007-.213 13.128-5.846 23.155-9.925 17.451-7.103 41.306-15.606 59.152-21.08 9.415-2.886 19.415-5.76 19.56-5.618.16.162-4.978 8.192-8.177 12.774-4.666 6.685-11.429 15.46-26.84 34.84-8.097 10.179-17.228 21.697-20.306 25.596-3.077 3.896-5.653 7.092-5.729 7.092zm129.407-22.555c-32.582 2.451-74.233 9.381-114.334 19.025-2.725.653-5.08 1.197-5.232 1.197-.147 0 2.835-2.992 6.627-6.638 23.55-22.64 34.287-36.936 46.933-62.475 1.881-3.805 3.48-7.086 3.541-7.286.008-.013.016-.013.038-.015.281-.059 2.15.847 4.399 2.135 18.801 10.77 37.225 24.601 51.713 38.824 4.119 4.044 14.203 14.532 14.051 14.619-.039.023-3.519.297-7.736.614z"/></svg>